<svg width="365" height="120" viewBox="0 0 365 120" fill="none" xmlns="http://www.w3.org/2000/svg">
<path d="M103.336 31.9454C103.478 31.8628 103.595 31.7446 103.677 31.6025C103.758 31.4604 103.801 31.2994 103.801 31.1356C103.801 30.9717 103.758 30.8108 103.677 30.6687C103.595 30.5266 103.478 30.4084 103.336 30.3258L67.5379 9.52738C65.2474 8.1997 62.6468 7.50049 59.9993 7.50049C57.3517 7.50049 54.7511 8.1997 52.4606 9.52738L16.6692 30.3258C16.5277 30.4084 16.4102 30.5266 16.3286 30.6687C16.247 30.8108 16.2041 30.9717 16.2041 31.1356C16.2041 31.2994 16.247 31.4604 16.3286 31.6025C16.4102 31.7446 16.5277 31.8628 16.6692 31.9454L59.5317 57.1594C59.6759 57.2443 59.8401 57.2891 60.0075 57.2891C60.1748 57.2891 60.3391 57.2443 60.4832 57.1594L103.336 31.9454Z" fill="url(#paint0_linear_5075_11807)"/>
<path d="M12.8067 38.5255C12.6637 38.443 12.5015 38.3996 12.3364 38.3999C12.1713 38.4002 12.0092 38.444 11.8665 38.527C11.7238 38.61 11.6056 38.7292 11.5237 38.8726C11.4419 39.016 11.3993 39.1784 11.4004 39.3435V80.099C11.4039 82.063 11.9216 83.9918 12.9018 85.6937C13.8821 87.3956 15.2908 88.8112 16.9879 89.7997L54.9942 112.588C55.1366 112.67 55.2982 112.714 55.4627 112.714C55.6272 112.714 55.7888 112.67 55.9312 112.588C56.0737 112.506 56.1921 112.388 56.2745 112.245C56.3568 112.103 56.4002 111.942 56.4004 111.777V64.4919C56.4002 64.3275 56.3568 64.1661 56.2746 64.0237C56.1923 63.8814 56.074 63.7632 55.9317 63.681L12.8067 38.5255Z" fill="#FF995C"/>
<path d="M63.5996 64.6466V111.756C63.5998 111.92 63.6432 112.082 63.7256 112.224C63.8079 112.367 63.9263 112.485 64.0688 112.567C64.2113 112.649 64.3729 112.693 64.5374 112.693C64.7018 112.692 64.8634 112.649 65.0059 112.567L103.01 89.7786C104.706 88.7914 106.114 87.3778 107.094 85.6781C108.075 83.9784 108.594 82.0518 108.6 80.0896V39.3341C108.599 39.1698 108.555 39.0086 108.473 38.8665C108.39 38.7245 108.272 38.6066 108.129 38.5247C107.987 38.4428 107.826 38.3998 107.661 38.3999C107.497 38.4 107.336 38.4434 107.193 38.5255L64.0684 63.838C63.9263 63.92 63.8083 64.0378 63.726 64.1797C63.6438 64.3216 63.6002 64.4826 63.5996 64.6466V64.6466Z" fill="#505CFB"/>
<path d="M138.049 15.2455V50.0082H130V15.2455H138.049Z" fill="#17161C"/>
<path d="M157.233 23.2488C159.687 23.2488 161.585 23.9689 162.927 25.4092C164.268 26.8494 164.939 28.8625 164.939 31.4484V50.0082H157.381V32.2831C157.381 30.1555 156.366 29.0917 154.337 29.0917C153.159 29.0917 152.129 29.5663 151.245 30.5156V50.0082H143.736V31.4484L143.196 24.2308L149.037 23.4943L149.724 26.4403H149.969C151.736 24.3126 154.157 23.2488 157.233 23.2488Z" fill="#17161C"/>
<path d="M182.233 23.4452L189.105 24.2308L182.626 50.0082H173.84L167.018 24.1817L174.282 23.4452L178.159 43.3306H178.454L182.233 23.4452Z" fill="#17161C"/>
<path d="M202.516 23.2488C205.788 23.2488 208.193 24.1489 209.731 25.9493C211.007 27.4223 211.792 29.8773 212.087 33.3142C212.185 34.689 212.234 36.4075 212.234 38.4697L208.749 38.9607H198.638C198.638 40.892 198.998 42.3486 199.718 43.3306C200.438 44.2799 201.714 44.7545 203.547 44.7545C205.412 44.7545 207.653 44.2799 210.271 43.3306L211.792 47.946C208.684 49.7136 205.444 50.5974 202.074 50.5974C194.45 50.5974 190.638 46.0802 190.638 37.0458C190.638 32.7905 191.62 29.4354 193.583 26.9804C195.579 24.4926 198.557 23.2488 202.516 23.2488ZM204.185 30.221C203.857 29.4681 203.121 29.0917 201.976 29.0917C200.831 29.0917 200.013 29.5172 199.522 30.3683C199.031 31.1866 198.753 32.4304 198.687 34.0998H204.675C204.675 32.234 204.512 30.9411 204.185 30.221Z" fill="#17161C"/>
<path d="M229.419 23.2488C231.873 23.2488 233.771 23.9689 235.112 25.4092C236.454 26.8494 237.124 28.8625 237.124 31.4484V50.0082H229.566V32.2831C229.566 30.1555 228.551 29.0917 226.523 29.0917C225.345 29.0917 224.314 29.5663 223.431 30.5156V50.0082H215.921V31.4484L215.381 24.2308L221.222 23.4943L221.909 26.4403H222.154C223.921 24.3126 226.343 23.2488 229.419 23.2488Z" fill="#17161C"/>
<path d="M250.541 23.6416H257.167L256.283 29.0917H250.541V40.3355C250.541 42.0049 250.77 43.1669 251.228 43.8216C251.686 44.4763 252.471 44.8036 253.584 44.8036C254.042 44.8036 254.975 44.6399 256.382 44.3126L257.707 48.6825C257.085 49.1735 256.071 49.6154 254.664 50.0082C253.289 50.401 252.03 50.5974 250.884 50.5974C247.645 50.5974 245.518 49.7791 244.504 48.1424C243.522 46.473 243.031 43.7561 243.031 39.9918V29.0917H239.252L239.939 24.1817L243.178 23.7398L243.473 18.8298L250.541 16.7185V23.6416Z" fill="#17161C"/>
<path d="M285.097 50.0082H277.097V37.9787C276.868 37.455 273.678 30.1228 267.526 15.982L275.183 15L280.974 30.6138H281.269L287.306 15L294.325 16.0311L285.097 37.9787V50.0082Z" fill="#17161C"/>
<path d="M307.59 23.2488C309.39 23.2488 310.961 23.527 312.302 24.0835C313.644 24.6399 314.691 25.3601 315.443 26.2439C316.229 27.0949 316.851 28.1588 317.309 29.4354C318.061 31.5303 318.438 34.0998 318.438 37.144C318.438 41.8249 317.129 45.3764 314.511 47.7987C312.515 49.6645 309.766 50.5974 306.265 50.5974C304.465 50.5974 302.895 50.3192 301.553 49.7627C300.212 49.2062 299.148 48.5025 298.363 47.6514C297.61 46.7676 296.989 45.6874 296.498 44.4108C295.745 42.3813 295.369 39.8118 295.369 36.7021C295.369 33.8216 295.942 31.2848 297.087 29.0917C299.083 25.1964 302.584 23.2488 307.59 23.2488ZM310.437 37.0458C310.437 34.0671 310.208 32.0049 309.75 30.8593C309.292 29.6809 308.31 29.0917 306.805 29.0917C305.333 29.0917 304.384 29.6481 303.958 30.7611C303.566 31.874 303.369 33.9034 303.369 36.8494C303.369 39.7954 303.598 41.8576 304.056 43.036C304.515 44.1817 305.496 44.7545 307.001 44.7545C308.507 44.7545 309.455 44.2144 309.848 43.1342C310.241 42.0213 310.437 39.9918 310.437 37.0458Z" fill="#17161C"/>
<path d="M329.693 50.5974C327.337 50.5974 325.488 49.8773 324.147 48.437C322.805 46.9967 322.134 45.0164 322.134 42.4959V24.1817L329.644 23.4943V41.563C329.644 43.6907 330.626 44.7545 332.589 44.7545C333.832 44.7545 334.896 44.2799 335.779 43.3306V24.1817L343.338 23.4943V42.4468L343.878 49.5663L337.988 50.3028L337.35 47.3077H337.154C335.223 49.5008 332.736 50.5974 329.693 50.5974Z" fill="#17161C"/>
<path d="M354.398 28.8953C354.889 27.1604 355.707 25.7856 356.852 24.7709C357.998 23.7561 359.323 23.2488 360.828 23.2488C362.366 23.2488 363.757 23.5597 365 24.1817L363.282 30.1228C362.268 29.8282 361.401 29.6809 360.681 29.6809C359.405 29.6809 358.243 30.1555 357.196 31.1047C356.182 32.054 355.674 33.4452 355.674 35.2782V50.0082H348.165V31.4975L347.625 24.2308L353.318 23.4943L354.202 28.8953H354.398Z" fill="#17161C"/>
<path d="M162.95 60.4173V95.18H154.901V60.4173H162.95Z" fill="#17161C"/>
<path d="M182.134 68.4206C184.588 68.4206 186.486 69.1408 187.827 70.581C189.169 72.0213 189.84 74.0344 189.84 76.6203V95.18H182.281V77.455C182.281 75.3273 181.267 74.2635 179.238 74.2635C178.06 74.2635 177.029 74.7381 176.146 75.6874V95.18H168.636V76.6203L168.096 69.4026L173.937 68.6661L174.624 71.6121H174.87C176.637 69.4845 179.058 68.4206 182.134 68.4206Z" fill="#17161C"/>
<path d="M207.134 68.617L214.005 69.4026L207.526 95.18H198.741L191.918 69.3535L199.182 68.617L203.06 88.5025H203.354L207.134 68.617Z" fill="#17161C"/>
<path d="M227.416 68.4206C230.689 68.4206 233.094 69.3208 234.631 71.1211C235.908 72.5941 236.693 75.0491 236.987 78.4861C237.086 79.8609 237.135 81.5794 237.135 83.6416L233.65 84.1326H223.539C223.539 86.0638 223.899 87.5205 224.619 88.5025C225.339 89.4517 226.615 89.9264 228.447 89.9264C230.312 89.9264 232.554 89.4517 235.171 88.5025L236.693 93.1178C233.584 94.8854 230.345 95.7692 226.975 95.7692C219.351 95.7692 215.539 91.252 215.539 82.2177C215.539 77.9624 216.52 74.6072 218.483 72.1522C220.479 69.6645 223.457 68.4206 227.416 68.4206ZM229.085 75.3928C228.758 74.6399 228.022 74.2635 226.876 74.2635C225.731 74.2635 224.913 74.689 224.422 75.5401C223.932 76.3584 223.653 77.6023 223.588 79.2717H229.576C229.576 77.4059 229.412 76.1129 229.085 75.3928Z" fill="#17161C"/>
<path d="M254.319 68.4206C256.773 68.4206 258.671 69.1408 260.013 70.581C261.354 72.0213 262.025 74.0344 262.025 76.6203V95.18H254.466V77.455C254.466 75.3273 253.452 74.2635 251.423 74.2635C250.245 74.2635 249.215 74.7381 248.331 75.6874V95.18H240.822V76.6203L240.282 69.4026L246.122 68.6661L246.81 71.6121H247.055C248.822 69.4845 251.243 68.4206 254.319 68.4206Z" fill="#17161C"/>
<path d="M275.441 68.8134H282.067L281.184 74.2635H275.441V85.5074C275.441 87.1768 275.67 88.3388 276.129 88.9935C276.587 89.6481 277.372 89.9754 278.484 89.9754C278.943 89.9754 279.875 89.8118 281.282 89.4844L282.607 93.8543C281.986 94.3453 280.971 94.7872 279.564 95.18C278.19 95.5728 276.93 95.7692 275.785 95.7692C272.546 95.7692 270.419 94.9509 269.404 93.3142C268.423 91.6448 267.932 88.928 267.932 85.1637V74.2635H264.152L264.84 69.3535L268.079 68.9116L268.374 64.0016L275.441 61.8903V68.8134Z" fill="#17161C"/>
<path d="M296.398 68.4206C298.198 68.4206 299.769 68.6989 301.11 69.2553C302.452 69.8118 303.499 70.5319 304.251 71.4157C305.037 72.2668 305.658 73.3306 306.117 74.6072C306.869 76.7021 307.245 79.2717 307.245 82.3159C307.245 86.9967 305.937 90.5483 303.319 92.9705C301.323 94.8363 298.574 95.7692 295.073 95.7692C293.273 95.7692 291.703 95.491 290.361 94.9345C289.02 94.3781 287.956 93.6743 287.171 92.8232C286.418 91.9394 285.797 90.8593 285.306 89.5827C284.553 87.5532 284.177 84.9836 284.177 81.874C284.177 78.9935 284.749 76.4566 285.895 74.2635C287.891 70.3682 291.392 68.4206 296.398 68.4206ZM299.245 82.2177C299.245 79.239 299.016 77.1768 298.558 76.0311C298.1 74.8527 297.118 74.2635 295.613 74.2635C294.141 74.2635 293.192 74.82 292.766 75.9329C292.374 77.0458 292.177 79.0753 292.177 82.0213C292.177 84.9673 292.406 87.0295 292.864 88.2079C293.322 89.3535 294.304 89.9264 295.809 89.9264C297.314 89.9264 298.263 89.3863 298.656 88.3061C299.049 87.1931 299.245 85.1637 299.245 82.2177Z" fill="#17161C"/>
<path d="M317.323 74.0671C317.814 72.3322 318.632 70.9574 319.777 69.9427C320.922 68.928 322.248 68.4206 323.753 68.4206C325.291 68.4206 326.681 68.7316 327.925 69.3535L326.207 75.2946C325.193 75 324.325 74.8527 323.606 74.8527C322.329 74.8527 321.168 75.3273 320.121 76.2766C319.106 77.2259 318.599 78.617 318.599 80.4501V95.18H311.09V76.6694L310.55 69.4026L316.243 68.6661L317.127 74.0671H317.323Z" fill="#17161C"/>
<path d="M342.642 68.6661L349.367 69.4026L343.379 90.6628C342.79 92.8232 342.152 94.6072 341.465 96.0147C340.81 97.455 339.959 98.8625 338.912 100.237C337.865 101.645 336.54 102.758 334.937 103.576C333.366 104.427 331.779 104.902 330.176 105L327.525 100.286C331.484 99.5663 333.808 97.7332 334.495 94.7872C333.644 91.9722 332.368 87.5696 330.666 81.5794C328.998 75.5892 327.852 71.5303 327.231 69.4026L334.642 68.6661L338.274 88.1588H338.618L342.642 68.6661Z" fill="#17161C"/>
<defs>
<linearGradient id="paint0_linear_5075_11807" x1="103.801" y1="31.1999" x2="16.2006" y2="31.1999" gradientUnits="userSpaceOnUse">
<stop stop-color="#505CFB"/>
<stop offset="0.510417" stop-color="#DD88F4"/>
<stop offset="1" stop-color="#FFA571"/>
</linearGradient>
</defs>
</svg>
