<svg width="120" height="120" viewBox="0 0 120 120" fill="none" xmlns="http://www.w3.org/2000/svg">
<path d="M103.336 31.9454C103.478 31.8628 103.595 31.7446 103.677 31.6025C103.758 31.4604 103.801 31.2994 103.801 31.1356C103.801 30.9717 103.758 30.8108 103.677 30.6687C103.595 30.5266 103.478 30.4084 103.336 30.3258L67.5379 9.52738C65.2474 8.1997 62.6468 7.50049 59.9993 7.50049C57.3517 7.50049 54.7511 8.1997 52.4606 9.52738L16.6692 30.3258C16.5277 30.4084 16.4102 30.5266 16.3286 30.6687C16.247 30.8108 16.2041 30.9717 16.2041 31.1356C16.2041 31.2994 16.247 31.4604 16.3286 31.6025C16.4102 31.7446 16.5277 31.8628 16.6692 31.9454L59.5317 57.1594C59.6759 57.2443 59.8401 57.2891 60.0075 57.2891C60.1748 57.2891 60.3391 57.2443 60.4832 57.1594L103.336 31.9454Z" fill="url(#paint0_linear_5074_11795)"/>
<path d="M12.8067 38.5255C12.6637 38.443 12.5015 38.3996 12.3364 38.3999C12.1713 38.4002 12.0092 38.444 11.8665 38.527C11.7238 38.61 11.6056 38.7292 11.5237 38.8726C11.4419 39.016 11.3993 39.1784 11.4004 39.3435V80.099C11.4039 82.063 11.9216 83.9918 12.9018 85.6937C13.8821 87.3956 15.2908 88.8112 16.9879 89.7997L54.9942 112.588C55.1366 112.67 55.2982 112.714 55.4627 112.714C55.6272 112.714 55.7888 112.67 55.9312 112.588C56.0737 112.506 56.1921 112.388 56.2745 112.245C56.3568 112.103 56.4002 111.942 56.4004 111.777V64.4919C56.4002 64.3275 56.3568 64.1661 56.2746 64.0237C56.1923 63.8814 56.074 63.7632 55.9317 63.681L12.8067 38.5255Z" fill="#FF995C"/>
<path d="M63.5996 64.6466V111.756C63.5998 111.92 63.6432 112.082 63.7256 112.224C63.8079 112.367 63.9263 112.485 64.0688 112.567C64.2113 112.649 64.3729 112.693 64.5374 112.693C64.7018 112.692 64.8634 112.649 65.0059 112.567L103.01 89.7786C104.706 88.7914 106.114 87.3778 107.094 85.6781C108.075 83.9784 108.594 82.0518 108.6 80.0896V39.3341C108.599 39.1698 108.555 39.0086 108.473 38.8665C108.39 38.7245 108.272 38.6066 108.129 38.5247C107.987 38.4428 107.826 38.3998 107.661 38.3999C107.497 38.4 107.336 38.4434 107.193 38.5255L64.0684 63.838C63.9263 63.92 63.8083 64.0378 63.726 64.1797C63.6438 64.3216 63.6002 64.4826 63.5996 64.6466V64.6466Z" fill="#505CFB"/>
<defs>
<linearGradient id="paint0_linear_5074_11795" x1="103.801" y1="31.1999" x2="16.2006" y2="31.1999" gradientUnits="userSpaceOnUse">
<stop stop-color="#505CFB"/>
<stop offset="0.510417" stop-color="#DD88F4"/>
<stop offset="1" stop-color="#FFA571"/>
</linearGradient>
</defs>
</svg>
