<svg width="42" height="42" viewBox="0 0 42 42" fill="none" xmlns="http://www.w3.org/2000/svg">
<circle cx="21" cy="21" r="20" stroke="#1E1E1E"/>
<path d="M14.4317 19.0002C13.7019 18.6228 13.2031 17.8618 13.2031 16.9846V11.479C13.2031 9.30724 14.9665 7.54663 17.1418 7.54663H25.1024C27.2776 7.54663 29.041 9.30724 29.041 11.479V16.6796C29.041 17.706 28.4391 18.5921 27.5685 19.0052L14.4317 19.0002Z" fill="#525380"/>
<path d="M27.4457 13.5941C26.3997 14.3033 25.137 14.7178 23.7774 14.7178C21.8483 14.7178 20.1146 13.8835 18.9179 12.5566C18.3104 14.1084 16.7991 15.2082 15.0297 15.2082C14.847 15.2082 14.6674 15.1951 14.4908 15.1725H14.5544V18.6711C14.5544 22.2083 17.4265 25.0759 20.9693 25.0759C24.5122 25.0759 27.3843 22.2083 27.3843 18.6711V13.4308L27.4457 13.5941Z" fill="#FFCB8D"/>
<path d="M23.2734 24.7834C23.2734 25.7638 23.7961 26.67 24.6453 27.1621L27.7589 28.2866C30.0698 29.121 31.6094 31.3116 31.6094 33.7651V34.4532H21H10.3906V33.7652C10.3906 31.3117 11.9302 29.1211 14.2411 28.2866L17.3547 27.1621C18.2039 26.6699 18.7266 25.7638 18.7266 24.7834" fill="#E24050"/>
<path d="M23.7944 26.4244L20.9877 30.859L18.181 26.4244C18.181 26.4244 18.675 25.8823 18.8896 24.7316C19.0585 25.0758 19.7444 25.0758 20.9692 25.0758C22.1941 25.0758 23.2489 24.6594 23.2489 24.6594L23.7944 26.4244Z" fill="#FFCB8D"/>
<path d="M27.9447 27.7721L24.8796 26.6652C24.2892 26.3062 23.9031 25.6876 23.8329 25.007C26.0191 24.0179 27.6056 21.9327 27.8862 19.4581C28.9229 18.9273 29.5878 17.8472 29.5878 16.6798V11.4792C29.5878 9.00938 27.5756 7 25.1023 7H17.1417C14.6684 7 12.6562 9.00938 12.6562 11.4792V16.9847C12.6562 17.9904 13.1855 18.9068 14.0471 19.4121C14.3155 21.929 15.9346 24.0487 18.1646 25.0328C18.0873 25.7032 17.7034 26.3106 17.1204 26.6651L14.0553 27.7721C11.5362 28.6818 9.84375 31.0902 9.84375 33.765V34.4531C9.84375 34.7552 10.0886 35 10.3906 35H31.6094C31.9114 35 32.1562 34.7552 32.1562 34.4531V33.765C32.1562 31.0902 30.4638 28.6818 27.9447 27.7721ZM15.1012 18.671V15.7536C16.044 15.7396 16.9486 15.4504 17.7215 14.9133C18.2721 14.5308 18.7296 14.0427 19.0709 13.4781C19.8768 14.1945 20.834 14.7176 21.877 15.007C22.1679 15.0877 22.4694 14.9173 22.5502 14.6263C22.631 14.3352 22.4605 14.0339 22.1695 13.9531C21.0739 13.6491 20.09 13.0395 19.324 12.1903C19.1971 12.0495 19.006 11.9847 18.8198 12.0186C18.6334 12.0526 18.4778 12.1807 18.4087 12.3572C17.8607 13.7568 16.5344 14.6612 15.0298 14.6612C14.8704 14.6612 14.7109 14.6255 14.5544 14.6255C14.2524 14.6255 14.0075 14.8703 14.0075 15.1723V17.8907C13.8421 17.6239 13.75 17.3121 13.75 16.9847V11.4792C13.75 9.61248 15.2715 8.09375 17.1417 8.09375H25.1023C26.9725 8.09375 28.494 9.61248 28.494 11.4792V16.6798C28.494 17.2068 28.2848 17.7061 27.9311 18.0777V13.4307C27.9311 13.1287 27.6862 12.8838 27.3842 12.8838C27.1161 12.8838 26.8934 13.077 26.8467 13.3317C26.3607 13.652 26.006 13.7814 25.3804 13.9544C25.0894 14.0349 24.9186 14.3362 24.9991 14.6273C25.0661 14.8696 25.2861 15.0286 25.5259 15.0286C25.5742 15.0286 25.6232 15.0221 25.672 15.0087C26.1219 14.8842 26.4797 14.7673 26.8373 14.5948V18.671C26.8373 21.9011 24.2049 24.5289 20.9693 24.5289C17.7336 24.5289 15.1012 21.901 15.1012 18.671ZM31.0625 33.9062H10.9375V33.765C10.9375 31.5495 12.3397 29.5545 14.4268 28.8008L17.5405 27.6763C17.5712 27.6653 17.6008 27.6515 17.629 27.6351C17.7933 27.5399 17.9473 27.4313 18.0904 27.3113L19.5498 29.6561C19.6535 29.8226 19.8319 29.9141 20.0146 29.9141C20.1133 29.9141 20.2132 29.8874 20.3031 29.8314C20.5594 29.6718 20.638 29.3345 20.4784 29.0781L18.8303 26.4301C19.0141 26.112 19.1447 25.7633 19.2146 25.3987C19.7753 25.5446 20.3634 25.6226 20.9693 25.6226C21.5963 25.6226 22.2041 25.5388 22.7825 25.3829C22.8513 25.7517 22.9821 26.1045 23.1674 26.4261L21.4709 29.0719C21.3078 29.3262 21.3818 29.6645 21.6361 29.8275C21.7275 29.8861 21.8297 29.9141 21.9307 29.9141C22.1109 29.9141 22.2872 29.8252 22.3916 29.6623L23.9029 27.3055C24.0479 27.4277 24.2042 27.5384 24.3712 27.6351C24.3994 27.6515 24.429 27.6653 24.4596 27.6763L27.5733 28.8008C29.6603 29.5545 31.0625 31.5495 31.0625 33.765V33.9062Z" fill="#1E1E1E"/>
<path d="M21.2951 30.4363C21.0397 30.2749 20.702 30.351 20.5407 30.6063L20.5377 30.6109C20.3763 30.8662 20.4524 31.204 20.7077 31.3654C20.7984 31.4227 20.8995 31.4501 20.9994 31.4501C21.1807 31.4501 21.3581 31.36 21.4621 31.1954L21.4651 31.1907C21.6265 30.9354 21.5504 30.5977 21.2951 30.4363Z" fill="#1E1E1E"/>
<path d="M23.7479 15.2646L23.7774 15.2647C24.0794 15.2647 24.3243 15.0199 24.3243 14.7178C24.3243 14.4158 24.0794 14.171 23.7774 14.171L23.7546 14.1709C23.7535 14.1709 23.7523 14.1709 23.7512 14.1709C23.4507 14.1709 23.2062 14.4135 23.2044 14.7144C23.2025 15.0164 23.4459 15.2628 23.7479 15.2646Z" fill="#1E1E1E"/>
</svg>
